<svg width="30" height="31" viewBox="0 0 30 31" fill="none" xmlns="http://www.w3.org/2000/svg">
<path fill-rule="evenodd" clip-rule="evenodd" d="M11.8044 3.87233C11.8041 3.70749 11.8364 3.54423 11.8994 3.3919C11.9624 3.23957 12.0548 3.10115 12.1713 2.9846C12.2879 2.86804 12.4263 2.77563 12.5786 2.71266C12.731 2.64968 12.8942 2.61739 13.0591 2.61762H25.6079C25.7727 2.61739 25.936 2.64968 26.0883 2.71266C26.2407 2.77563 26.3791 2.86804 26.4956 2.9846C26.6122 3.10115 26.7046 3.23957 26.7676 3.3919C26.8305 3.54423 26.8628 3.70749 26.8626 3.87233V11.4023C26.8628 11.5672 26.8305 11.7304 26.7676 11.8828C26.7046 12.0351 26.6122 12.1735 26.4956 12.2901C26.3791 12.4066 26.2407 12.499 26.0883 12.562C25.936 12.625 25.7727 12.6573 25.6079 12.657H15.5685C15.3737 12.6569 15.1815 12.7022 15.0073 12.7894L11.8044 14.3917V3.87233ZM13.0591 0.106445C10.9803 0.106445 9.29496 1.79174 9.29496 3.87056V16.4194C9.29445 16.6335 9.34879 16.8441 9.45281 17.0312C9.55683 17.2183 9.70706 17.3756 9.88915 17.4882C10.0713 17.6007 10.2792 17.6647 10.493 17.6741C10.7069 17.6835 10.9196 17.6379 11.1108 17.5417L15.865 15.1664H25.6079C27.6867 15.1664 29.372 13.4812 29.372 11.4023V3.87233C29.372 1.7935 27.6867 0.10821 25.6079 0.10821H13.0591V0.106445ZM4.27437 2.61762C2.19555 2.61762 0.510254 4.30292 0.510254 6.38174V26.4606C0.510254 28.5394 2.19555 30.2247 4.27437 30.2247H18.0779C20.1567 30.2247 21.842 28.5394 21.842 26.4606V17.6759C21.842 17.3431 21.7098 17.0239 21.4745 16.7886C21.2392 16.5533 20.9201 16.4212 20.5873 16.4212C20.2545 16.4212 19.9354 16.5533 19.7001 16.7886C19.4648 17.0239 19.3326 17.3431 19.3326 17.6759V26.4606C19.3328 26.6254 19.3005 26.7887 19.2376 26.941C19.1746 27.0933 19.0822 27.2317 18.9656 27.3483C18.8491 27.4648 18.7107 27.5573 18.5583 27.6202C18.406 27.6832 18.2427 27.7155 18.0779 27.7153H4.27437C4.10954 27.7155 3.94627 27.6832 3.79394 27.6202C3.64161 27.5573 3.5032 27.4648 3.38664 27.3483C3.27009 27.2317 3.17767 27.0933 3.1147 26.941C3.05173 26.7887 3.01943 26.6254 3.01967 26.4606V6.38174C3.01943 6.2169 3.05173 6.05364 3.1147 5.90131C3.17767 5.74898 3.27009 5.61057 3.38664 5.49401C3.5032 5.37745 3.64161 5.28504 3.79394 5.22207C3.94627 5.1591 4.10954 5.1268 4.27437 5.12703H6.78378C6.94855 5.12703 7.11171 5.09458 7.26394 5.03152C7.41617 4.96847 7.55448 4.87605 7.67099 4.75954C7.7875 4.64303 7.87992 4.50471 7.94298 4.35248C8.00603 4.20025 8.03849 4.0371 8.03849 3.87233C8.03849 3.70756 8.00603 3.5444 7.94298 3.39217C7.87992 3.23994 7.7875 3.10163 7.67099 2.98512C7.55448 2.86861 7.41617 2.77619 7.26394 2.71313C7.11171 2.65008 6.94855 2.61762 6.78378 2.61762H4.27437Z" fill="#64CF83"/>
</svg>
